<svg version="1.1" id="Layer_1" xmlns="http://www.w3.org/2000/svg" xmlns:xlink="http://www.w3.org/1999/xlink" x="0px" y="0px"
	 width="100%" viewBox="0 0 1701 371" enable-background="new 0 0 1701 371" xml:space="preserve">
<path fill="#000000" opacity="1.000000" stroke="none" 
	d="
M1702.000000,258.000000 
	C1702.000000,295.990417 1702.000000,333.980865 1702.000000,372.000000 
	C1177.308472,372.000000 652.616882,372.000000 127.490601,371.631775 
	C133.104813,368.154510 139.337723,365.352264 145.157089,361.860748 
	C152.838776,357.251801 159.177856,350.982025 164.084641,343.492950 
	C173.441986,329.211121 177.789398,313.154816 177.861786,296.340912 
	C178.165100,225.882843 177.974030,155.422699 178.043320,84.963402 
	C178.046814,81.420837 177.077820,79.876144 173.256165,79.917282 
	C169.565704,79.957001 167.863449,80.827682 167.929245,84.951790 
	C168.139130,98.107460 168.009949,111.268692 167.987457,124.427734 
	C167.984528,126.142136 167.839615,127.856300 167.750763,129.780838 
	C163.827850,122.811264 160.566986,116.057930 156.444641,109.879379 
	C145.381622,93.298172 129.599716,82.666512 110.726097,77.372726 
	C97.896614,73.774239 84.389473,74.012756 71.219093,76.477142 
	C58.288227,78.896706 46.517693,84.252159 36.162262,92.488396 
	C25.827274,100.708366 17.754536,111.005356 12.179876,122.734459 
	C7.938753,131.657806 5.927351,141.636978 2.832528,151.116577 
	C2.588468,151.864136 1.627689,152.377686 1.000000,153.000000 
	C1.000000,102.356926 1.000000,51.713844 1.000000,1.000000 
	C254.691559,1.000000 508.383148,1.000000 762.538147,1.468657 
	C763.001587,46.504971 763.001587,91.072624 763.001587,135.923630 
	C759.339966,128.654114 756.331543,121.532303 752.342529,115.010201 
	C744.874817,102.800079 734.766052,93.369164 721.881897,86.656059 
	C711.537476,81.266304 700.574341,78.233475 689.263733,77.233757 
	C679.533752,76.373749 669.659485,76.489990 659.841858,78.902512 
	C650.082153,81.300827 641.001282,84.782761 632.915222,90.639061 
	C622.115601,98.460625 613.903931,108.384132 607.465942,120.212952 
	C601.091675,131.924713 596.007385,144.073883 594.199768,157.085144 
	C592.412659,169.948303 592.440613,183.086334 592.060852,196.115112 
	C591.757507,206.519989 593.095642,216.662643 595.608032,226.939941 
	C599.270447,241.921844 605.171387,255.563293 614.042175,267.987701 
	C622.849976,280.323944 633.866882,290.326630 648.054749,295.955475 
	C660.106689,300.736877 672.737000,301.984528 685.870972,301.271576 
	C700.334045,300.486450 713.539734,296.865387 725.606750,289.097870 
	C738.092529,281.060852 748.322876,270.800537 755.227112,257.492218 
	C757.682251,252.759796 760.023132,247.968140 763.005493,242.030014 
	C763.005493,259.164825 762.952515,274.975281 763.072876,290.784424 
	C763.087830,292.747437 764.002136,296.376953 764.535461,296.383667 
	C767.404907,296.419678 770.285645,295.554504 773.417053,294.670654 
	C773.781128,291.851868 773.985840,289.362885 773.986267,286.873810 
	C774.002502,191.582535 774.000000,96.291267 774.000000,1.000000 
	C1008.358215,1.000000 1242.716431,1.000000 1477.537720,1.468657 
	C1478.000732,35.171230 1478.000732,68.405144 1478.000732,101.639061 
	C1477.127319,102.253555 1476.254028,102.868050 1475.380615,103.482552 
	C1474.721191,101.927315 1474.488037,99.851944 1473.331055,98.903831 
	C1467.233521,93.906906 1461.561279,87.433640 1454.499878,84.793373 
	C1443.745483,80.772346 1432.064697,78.191727 1420.608032,77.376183 
	C1408.927246,76.544670 1397.034546,75.832069 1385.165161,78.778275 
	C1375.903809,81.077171 1367.140869,84.357971 1359.209717,89.155388 
	C1343.362305,98.741302 1332.316650,113.180458 1325.426758,129.976990 
	C1319.475220,144.485947 1315.413208,159.968491 1315.136719,175.865250 
	C1314.838013,193.034088 1314.370361,210.181625 1318.855225,227.192001 
	C1324.067139,246.960175 1332.452759,264.458771 1347.160889,279.024994 
	C1364.026978,295.728424 1384.388916,303.813965 1407.601196,303.664917 
	C1417.960938,303.598450 1428.351929,300.285767 1438.633423,298.014282 
	C1454.854736,294.430542 1469.056763,287.076904 1481.019775,272.994263 
	C1481.019775,280.795319 1481.119751,287.200043 1480.977539,293.599396 
	C1480.906738,296.786530 1482.074341,298.107819 1485.330200,298.026001 
	C1491.158569,297.879425 1496.993774,298.003845 1502.826050,298.001556 
	C1510.981445,297.998383 1510.989502,297.993103 1510.989990,289.951782 
	C1510.994751,193.634521 1510.997070,97.317261 1511.000000,1.000000 
	C1574.598511,1.000000 1638.197144,1.000000 1702.000000,1.000000 
	C1702.000000,69.691444 1702.000000,138.383087 1701.644653,207.523651 
	C1699.502563,205.264084 1697.879150,202.429214 1695.899170,199.870285 
	C1689.433472,191.513992 1681.547974,184.545914 1671.517090,181.266754 
	C1660.988892,177.825012 1649.992920,175.800903 1639.177979,173.256805 
	C1636.117920,172.536942 1632.878906,172.484802 1629.888672,171.577225 
	C1618.796387,168.210541 1607.670776,164.901871 1596.766724,160.988525 
	C1590.971924,158.908783 1585.124512,156.296783 1580.181519,152.711060 
	C1575.098633,149.023804 1570.880249,144.516464 1570.758545,136.865631 
	C1570.595581,126.609962 1574.561890,119.483284 1582.202148,113.047470 
	C1591.839844,104.929108 1602.812500,101.126060 1614.994019,101.205109 
	C1622.357300,101.252876 1629.799438,102.646271 1637.034058,104.224113 
	C1641.745361,105.251587 1647.121582,106.630463 1650.498535,109.714798 
	C1659.333252,117.783768 1665.729736,127.764618 1668.843384,139.587021 
	C1669.164429,140.805832 1670.387329,142.703903 1671.233154,142.726349 
	C1679.964478,142.958176 1688.704224,142.868744 1698.489868,142.868744 
	C1696.205933,133.906693 1694.170166,125.963531 1692.158569,118.014229 
	C1688.557251,103.782242 1679.264526,94.269958 1666.766357,87.448242 
	C1655.664551,81.388771 1643.695312,78.123039 1631.180176,76.839142 
	C1610.883423,74.756935 1590.898804,75.158546 1572.185669,84.861473 
	C1561.666748,90.315605 1553.424194,98.576042 1547.291382,108.283913 
	C1541.381836,117.637924 1538.031128,128.438660 1539.081787,139.875031 
	C1539.598877,145.505554 1540.138550,151.385101 1542.173340,156.560089 
	C1544.595337,162.719955 1547.650879,169.194626 1552.162598,173.858994 
	C1563.828369,185.919922 1579.407471,190.972610 1595.269775,194.904007 
	C1607.516113,197.939178 1619.944580,200.288742 1632.087036,203.677643 
	C1641.050537,206.179291 1649.953735,209.291168 1658.357178,213.249191 
	C1663.006958,215.439209 1667.443237,219.312576 1670.427856,223.524033 
	C1675.100586,230.117386 1677.343262,238.377304 1674.061768,245.982101 
	C1667.921509,260.211945 1655.624146,268.594879 1641.174683,271.533508 
	C1625.623657,274.696136 1609.421753,275.048889 1594.110352,268.886597 
	C1586.210571,265.707275 1578.869507,261.712494 1573.810303,254.116501 
	C1568.174072,245.654419 1564.154663,236.677032 1562.187622,226.785553 
	C1561.674316,224.204468 1560.794434,222.959320 1558.065796,222.993896 
	C1551.067871,223.082565 1544.068237,223.021042 1537.069214,223.022064 
	C1534.514771,223.022430 1533.283203,223.555862 1533.699829,226.830429 
	C1535.587769,241.662491 1539.796021,255.751114 1546.079712,269.284485 
	C1550.843994,279.545380 1558.766235,286.931152 1568.513672,291.851318 
	C1581.586670,298.450043 1595.866821,301.407776 1610.486572,301.921936 
	C1628.899536,302.569519 1647.042480,301.523376 1664.245728,293.514069 
	C1678.220947,287.007568 1689.888672,278.311951 1697.178711,264.380707 
	C1698.397827,262.050812 1700.373779,260.116882 1702.000000,258.000000 
M840.389282,80.338989 
	C833.399231,80.228111 826.409485,80.063484 819.419067,80.021057 
	C812.026245,79.976181 812.007751,80.027000 812.006958,87.419876 
	C812.001282,141.915100 812.002930,196.410309 812.003235,250.905533 
	C812.003357,264.404358 812.158630,277.905823 811.923096,291.400482 
	C811.845154,295.865387 813.444580,297.246094 817.737366,297.063782 
	C824.225098,296.788269 830.747986,296.724091 837.227661,297.082306 
	C841.950500,297.343384 843.062988,295.493469 843.083679,291.058929 
	C843.273621,250.264847 843.393372,209.466034 844.238586,168.683212 
	C844.402100,160.790802 846.355103,152.355927 849.734070,145.240417 
	C855.330200,133.456009 864.256897,124.190239 876.325073,118.144424 
	C890.315247,111.135742 904.582581,106.109299 920.934265,108.673576 
	C920.934265,98.775978 920.976440,89.135094 920.871399,79.495796 
	C920.860413,78.488960 920.177856,76.810699 919.466125,76.601196 
	C915.078613,75.309746 910.324585,72.838356 906.192322,73.572639 
	C895.105652,75.542656 883.735046,77.136093 874.196777,84.304924 
	C865.113342,91.131866 855.025635,96.720253 849.017944,106.976913 
	C846.568542,111.158745 843.754456,115.126984 841.645508,118.444290 
	C841.762024,108.301865 841.939575,98.159500 841.950256,88.016968 
	C841.952820,85.611511 841.396057,83.205460 840.389282,80.338989 
M1123.854248,123.538284 
	C1122.277100,130.403061 1120.603271,137.247650 1119.164551,144.141327 
	C1118.466797,147.484863 1120.101562,149.091644 1123.571411,149.045654 
	C1131.400146,148.941925 1139.230469,148.928558 1147.060059,148.928680 
	C1154.034668,148.928772 1154.120117,148.957153 1153.997437,141.754898 
	C1153.771240,128.480392 1160.080200,118.450226 1169.966675,110.517883 
	C1178.535156,103.643135 1189.284912,102.218231 1199.662476,101.205910 
	C1211.865479,100.015495 1223.908569,101.908478 1235.330322,106.976662 
	C1243.740356,110.708427 1250.392700,115.850677 1251.998535,125.512642 
	C1253.312378,133.418228 1255.072021,141.349182 1255.251221,149.300049 
	C1255.335083,153.020187 1257.664185,159.138367 1250.598511,160.657364 
	C1239.687012,163.003189 1228.861938,165.790482 1217.896362,167.833649 
	C1208.362793,169.610031 1198.673218,170.535248 1189.075073,171.985123 
	C1181.125854,173.185883 1173.197754,174.536819 1165.281250,175.939636 
	C1152.303223,178.239349 1141.130005,184.355164 1131.056274,192.601028 
	C1120.242920,201.452240 1114.223145,213.453079 1111.231323,226.623489 
	C1107.972900,240.966599 1110.411621,254.985397 1117.115234,268.238251 
	C1126.274902,286.346893 1141.842773,296.315826 1160.869629,299.615784 
	C1177.088745,302.428772 1193.724365,302.531982 1210.177856,298.220154 
	C1222.172852,295.076721 1233.033813,289.998016 1243.222046,283.240967 
	C1248.374390,279.823883 1253.217163,275.940063 1258.064941,272.366730 
	C1259.949341,277.472565 1261.228149,282.303070 1263.462158,286.641754 
	C1266.202881,291.964966 1269.665649,296.954956 1276.717163,297.123444 
	C1287.173218,297.373230 1297.628296,297.755188 1308.083984,297.759857 
	C1309.044922,297.760284 1310.772217,295.480896 1310.837402,294.194000 
	C1311.140259,288.211426 1311.000732,282.205536 1310.985596,276.208038 
	C1310.967529,269.048981 1310.952515,269.049011 1304.040039,268.997955 
	C1293.830322,268.922546 1288.503174,263.831299 1288.032837,253.653198 
	C1287.948364,251.824158 1287.998657,249.988586 1287.998657,248.156021 
	C1287.999512,213.669662 1288.018555,179.183289 1287.993896,144.696960 
	C1287.987183,135.311111 1287.738892,126.107925 1285.220703,116.776970 
	C1281.741699,103.886688 1274.118896,94.561584 1263.607544,87.519592 
	C1247.292847,76.589722 1228.372314,75.036957 1209.519287,75.193741 
	C1198.955566,75.281601 1188.267090,76.971283 1177.903076,79.191246 
	C1169.724609,80.943069 1161.723511,84.089539 1154.053711,87.530685 
	C1138.602783,94.462990 1128.171753,105.989868 1123.854248,123.538284 
M980.028931,297.510437 
	C982.866516,298.322815 985.666199,299.652283 988.547913,299.863861 
	C1007.540894,301.258667 1026.519897,302.988342 1045.230103,297.048981 
	C1059.687988,292.459412 1072.605957,285.667664 1082.095947,273.561615 
	C1086.756104,267.616821 1091.443359,261.539398 1094.994873,254.919296 
	C1099.225830,247.032532 1102.376221,238.549225 1105.719482,230.213943 
	C1106.654785,227.882248 1105.650635,226.008102 1102.570679,226.025330 
	C1093.238281,226.077560 1083.901611,225.909225 1074.576416,226.175278 
	C1073.036133,226.219238 1070.677979,227.691650 1070.166504,229.054977 
	C1064.909546,243.066483 1057.746826,255.565979 1044.428589,263.498810 
	C1034.994507,269.118073 1025.414917,274.004150 1013.912537,274.100616 
	C1001.123352,274.207825 989.139709,272.179810 977.446106,266.472931 
	C965.604553,260.693817 957.564392,252.028229 952.620117,240.169540 
	C950.280151,234.557220 947.752869,228.914200 946.377686,223.035431 
	C944.591003,215.397552 943.867126,207.511078 942.550598,198.841156 
	C997.531799,198.841156 1051.561523,198.841156 1105.703491,198.841156 
	C1106.817017,178.808777 1105.066650,160.001083 1099.283813,141.422104 
	C1094.455200,125.908775 1086.569092,112.689804 1075.246948,101.142281 
	C1057.000122,82.532349 1034.321045,75.221878 1009.070862,75.190552 
	C1000.146484,75.179482 991.195923,77.518608 982.298889,79.029747 
	C970.981812,80.951920 961.203064,86.462570 952.324524,93.357742 
	C939.517273,103.303902 928.606384,115.075745 923.004944,130.624298 
	C919.134521,141.367966 914.994995,152.293686 913.352295,163.486847 
	C911.507080,176.059525 911.580017,189.063263 912.232483,201.807068 
	C912.784180,212.582520 914.345032,223.539398 917.268982,233.905548 
	C921.638611,249.397400 929.428406,263.345032 941.017639,274.908508 
	C951.832397,285.699310 964.476196,293.265442 980.028931,297.510437 
M325.118835,81.116699 
	C316.623871,79.324265 308.185608,77.173882 299.621582,75.817703 
	C284.214203,73.377831 269.056396,75.620949 254.879349,81.554619 
	C236.963882,89.052971 223.738785,102.489502 213.689682,118.898804 
	C201.851349,138.229767 196.578217,159.569260 196.091370,182.070038 
	C195.894119,191.186005 196.163116,200.386124 197.212097,209.432907 
	C198.151871,217.537628 199.675140,225.753372 202.329987,233.440414 
	C206.778809,246.321854 213.016403,258.375214 221.591858,269.217743 
	C234.521713,285.565857 250.819794,296.444580 271.362396,299.881256 
	C280.364075,301.387146 289.731415,300.934174 298.933838,300.959564 
	C312.476532,300.996887 324.793121,296.463989 336.114044,289.421448 
	C354.147278,278.203308 365.906128,261.673737 374.206024,242.511353 
	C380.153900,228.779236 383.355774,214.289749 383.873993,199.377655 
	C384.605469,178.327621 383.617645,157.523254 375.450897,137.516571 
	C369.742371,123.532051 362.003815,111.158127 351.742554,100.150635 
	C344.297516,92.164162 335.293762,86.520813 325.118835,81.116699 
M551.986023,278.495148 
	C557.653442,270.999390 563.881042,263.855652 568.862732,255.928925 
	C577.247375,242.587372 582.185791,227.784653 584.110718,212.136002 
	C586.459961,193.037720 586.634155,174.049561 582.237000,155.039246 
	C579.305603,142.365372 574.698975,130.596985 568.169556,119.467384 
	C559.905640,105.381180 549.081421,93.429314 535.039307,85.309196 
	C522.834656,78.251701 509.010223,75.166969 494.747925,75.012619 
	C483.342865,74.889183 472.190887,76.149361 461.265747,79.871529 
	C450.130310,83.665337 440.246063,89.603050 432.319702,97.925842 
	C425.025208,105.585159 418.534943,114.254570 413.026794,123.293381 
	C408.659271,130.460373 405.631958,138.660324 403.263458,146.767914 
	C400.940308,154.720490 399.252106,163.103592 398.974274,171.354614 
	C398.484619,185.895615 398.386749,200.567322 399.802002,215.020065 
	C401.078247,228.053421 405.347870,240.724365 412.068542,252.094086 
	C417.142975,260.678650 422.563538,269.388550 429.413910,276.521545 
	C441.842957,289.463257 457.359131,297.637817 475.293884,300.550201 
	C478.879944,301.132568 482.588074,301.325134 486.220703,301.188202 
	C495.602692,300.834625 505.260315,301.447632 514.283447,299.382935 
	C528.350647,296.164032 540.804016,288.934113 551.986023,278.495148 
z"/>
<path fill="#59461B" opacity="1.000000" stroke="none" 
	d="
M1510.531372,1.000000 
	C1510.997070,97.317261 1510.994751,193.634521 1510.989990,289.951782 
	C1510.989502,297.993103 1510.981445,297.998383 1502.826050,298.001556 
	C1496.993774,298.003845 1491.158569,297.879425 1485.330200,298.026001 
	C1482.074341,298.107819 1480.906738,296.786530 1480.977539,293.599396 
	C1481.119751,287.200043 1481.019775,280.795319 1481.019775,272.994263 
	C1469.056763,287.076904 1454.854736,294.430542 1438.633423,298.014282 
	C1428.351929,300.285767 1417.960938,303.598450 1407.601196,303.664917 
	C1384.388916,303.813965 1364.026978,295.728424 1347.160889,279.024994 
	C1332.452759,264.458771 1324.067139,246.960175 1318.855225,227.192001 
	C1314.370361,210.181625 1314.838013,193.034088 1315.136719,175.865250 
	C1315.413208,159.968491 1319.475220,144.485947 1325.426758,129.976990 
	C1332.316650,113.180458 1343.362305,98.741302 1359.209717,89.155388 
	C1367.140869,84.357971 1375.903809,81.077171 1385.165161,78.778275 
	C1397.034546,75.832069 1408.927246,76.544670 1420.608032,77.376183 
	C1432.064697,78.191727 1443.745483,80.772346 1454.499878,84.793373 
	C1461.561279,87.433640 1467.233521,93.906906 1473.331055,98.903831 
	C1474.488037,99.851944 1474.721191,101.927315 1475.380615,103.482552 
	C1476.254028,102.868050 1477.127319,102.253555 1478.000732,101.639061 
	C1478.000732,68.405144 1478.000732,35.171230 1478.000366,1.468657 
	C1488.687622,1.000000 1499.375122,1.000000 1510.531372,1.000000 
M1347.896606,152.269577 
	C1346.599121,159.231812 1344.576416,166.152161 1344.171387,173.165939 
	C1343.538818,184.118668 1343.588135,195.154129 1344.102417,206.119171 
	C1344.809570,221.195053 1348.687134,235.524246 1357.632812,247.930435 
	C1368.796631,263.413116 1385.160278,270.884247 1402.854858,276.004547 
	C1410.993042,278.359497 1418.743042,276.325073 1426.576416,273.984894 
	C1437.305298,270.779633 1447.280273,266.129669 1456.324707,259.597626 
	C1459.778442,257.103271 1463.202759,254.319778 1465.884521,251.048447 
	C1476.962036,237.536087 1479.171265,220.820679 1480.686890,204.409943 
	C1481.691650,193.529770 1480.296631,182.305939 1478.930054,171.366592 
	C1477.794800,162.278854 1475.731079,153.193802 1472.981201,144.452805 
	C1470.204590,135.626419 1465.540283,127.487785 1457.580444,122.117310 
	C1450.228027,117.156677 1442.837402,112.083458 1434.909180,108.188400 
	C1424.813354,103.228508 1413.856079,100.950287 1402.642212,103.975227 
	C1391.782349,106.904640 1381.872681,111.893433 1372.080933,117.626442 
	C1358.635376,125.498833 1351.738037,137.137543 1347.896606,152.269577 
z"/>
<path fill="#59461B" opacity="1.000000" stroke="none" 
	d="
M1702.000000,257.531342 
	C1700.373779,260.116882 1698.397827,262.050812 1697.178711,264.380707 
	C1689.888672,278.311951 1678.220947,287.007568 1664.245728,293.514069 
	C1647.042480,301.523376 1628.899536,302.569519 1610.486572,301.921936 
	C1595.866821,301.407776 1581.586670,298.450043 1568.513672,291.851318 
	C1558.766235,286.931152 1550.843994,279.545380 1546.079712,269.284485 
	C1539.796021,255.751114 1535.587769,241.662491 1533.699829,226.830429 
	C1533.283203,223.555862 1534.514771,223.022430 1537.069214,223.022064 
	C1544.068237,223.021042 1551.067871,223.082565 1558.065796,222.993896 
	C1560.794434,222.959320 1561.674316,224.204468 1562.187622,226.785553 
	C1564.154663,236.677032 1568.174072,245.654419 1573.810303,254.116501 
	C1578.869507,261.712494 1586.210571,265.707275 1594.110352,268.886597 
	C1609.421753,275.048889 1625.623657,274.696136 1641.174683,271.533508 
	C1655.624146,268.594879 1667.921509,260.211945 1674.061768,245.982101 
	C1677.343262,238.377304 1675.100586,230.117386 1670.427856,223.524033 
	C1667.443237,219.312576 1663.006958,215.439209 1658.357178,213.249191 
	C1649.953735,209.291168 1641.050537,206.179291 1632.087036,203.677643 
	C1619.944580,200.288742 1607.516113,197.939178 1595.269775,194.904007 
	C1579.407471,190.972610 1563.828369,185.919922 1552.162598,173.858994 
	C1547.650879,169.194626 1544.595337,162.719955 1542.173340,156.560089 
	C1540.138550,151.385101 1539.598877,145.505554 1539.081787,139.875031 
	C1538.031128,128.438660 1541.381836,117.637924 1547.291382,108.283913 
	C1553.424194,98.576042 1561.666748,90.315605 1572.185669,84.861473 
	C1590.898804,75.158546 1610.883423,74.756935 1631.180176,76.839142 
	C1643.695312,78.123039 1655.664551,81.388771 1666.766357,87.448242 
	C1679.264526,94.269958 1688.557251,103.782242 1692.158569,118.014229 
	C1694.170166,125.963531 1696.205933,133.906693 1698.489868,142.868744 
	C1688.704224,142.868744 1679.964478,142.958176 1671.233154,142.726349 
	C1670.387329,142.703903 1669.164429,140.805832 1668.843384,139.587021 
	C1665.729736,127.764618 1659.333252,117.783768 1650.498535,109.714798 
	C1647.121582,106.630463 1641.745361,105.251587 1637.034058,104.224113 
	C1629.799438,102.646271 1622.357300,101.252876 1614.994019,101.205109 
	C1602.812500,101.126060 1591.839844,104.929108 1582.202148,113.047470 
	C1574.561890,119.483284 1570.595581,126.609962 1570.758545,136.865631 
	C1570.880249,144.516464 1575.098633,149.023804 1580.181519,152.711060 
	C1585.124512,156.296783 1590.971924,158.908783 1596.766724,160.988525 
	C1607.670776,164.901871 1618.796387,168.210541 1629.888672,171.577225 
	C1632.878906,172.484802 1636.117920,172.536942 1639.177979,173.256805 
	C1649.992920,175.800903 1660.988892,177.825012 1671.517090,181.266754 
	C1681.547974,184.545914 1689.433472,191.513992 1695.899170,199.870285 
	C1697.879150,202.429214 1699.502563,205.264084 1701.644653,207.986282 
	C1702.000000,224.354233 1702.000000,240.708450 1702.000000,257.531342 
z"/>
<path fill="#000000" opacity="1.000000" stroke="none" 
	d="
M57.000000,372.000000 
	C38.370693,372.000000 19.741388,372.000000 1.000000,372.000000 
	C1.000000,317.979156 1.000000,263.958221 1.387270,209.521118 
	C2.131251,209.624481 2.728065,210.109161 2.809309,210.668732 
	C4.526079,222.492386 9.070016,233.249710 14.808769,243.629379 
	C26.295412,264.405304 43.700073,278.161713 66.466843,283.482666 
	C77.510361,286.063721 89.635094,285.172638 101.146141,284.269867 
	C112.332169,283.392609 122.759415,278.773468 132.401459,272.936462 
	C142.007675,267.121124 150.918045,260.359955 157.069733,250.733063 
	C160.807999,244.883041 164.041260,238.710342 167.533264,232.627060 
	C167.636932,233.012787 167.948090,233.601257 167.928192,234.178314 
	C167.065948,259.193298 170.071854,284.296478 165.959900,309.247498 
	C164.111557,320.463287 160.876892,330.958710 153.803040,340.088623 
	C144.393661,352.232819 132.185471,359.737793 117.088799,362.261292 
	C107.894714,363.798096 98.599609,365.704681 89.351151,365.697937 
	C77.537109,365.689331 65.735641,363.681152 54.785469,358.737183 
	C44.832600,354.243469 36.469646,347.750885 30.604607,338.280151 
	C25.177950,329.517334 22.224724,320.067444 21.959194,309.780640 
	C21.875513,306.538757 20.462425,305.005371 17.072159,304.948730 
	C11.265580,304.851685 9.437988,307.190460 11.308886,314.403229 
	C13.473966,322.750153 15.748778,331.162445 19.050436,339.099365 
	C24.361635,351.867035 34.688641,360.044159 46.644699,366.349792 
	C50.122444,368.183929 53.549637,370.113922 57.000000,372.000000 
z"/>
<path fill="#5A471B" opacity="1.000000" stroke="none" 
	d="
M57.468658,372.000000 
	C53.549637,370.113922 50.122444,368.183929 46.644699,366.349792 
	C34.688641,360.044159 24.361635,351.867035 19.050436,339.099365 
	C15.748778,331.162445 13.473966,322.750153 11.308886,314.403229 
	C9.437988,307.190460 11.265580,304.851685 17.072159,304.948730 
	C20.462425,305.005371 21.875513,306.538757 21.959194,309.780640 
	C22.224724,320.067444 25.177950,329.517334 30.604607,338.280151 
	C36.469646,347.750885 44.832600,354.243469 54.785469,358.737183 
	C65.735641,363.681152 77.537109,365.689331 89.351151,365.697937 
	C98.599609,365.704681 107.894714,363.798096 117.088799,362.261292 
	C132.185471,359.737793 144.393661,352.232819 153.803040,340.088623 
	C160.876892,330.958710 164.111557,320.463287 165.959900,309.247498 
	C170.071854,284.296478 167.065948,259.193298 167.928192,234.178314 
	C167.948090,233.601257 167.636932,233.012787 167.533264,232.627060 
	C164.041260,238.710342 160.807999,244.883041 157.069733,250.733063 
	C150.918045,260.359955 142.007675,267.121124 132.401459,272.936462 
	C122.759415,278.773468 112.332169,283.392609 101.146141,284.269867 
	C89.635094,285.172638 77.510361,286.063721 66.466843,283.482666 
	C43.700073,278.161713 26.295412,264.405304 14.808769,243.629379 
	C9.070016,233.249710 4.526079,222.492386 2.809309,210.668732 
	C2.728065,210.109161 2.131251,209.624481 1.387270,209.052460 
	C1.000000,190.645767 1.000000,172.291550 1.000000,153.468658 
	C1.627689,152.377686 2.588468,151.864136 2.832528,151.116577 
	C5.927351,141.636978 7.938753,131.657806 12.179876,122.734459 
	C17.754536,111.005356 25.827274,100.708366 36.162262,92.488396 
	C46.517693,84.252159 58.288227,78.896706 71.219093,76.477142 
	C84.389473,74.012756 97.896614,73.774239 110.726097,77.372726 
	C129.599716,82.666512 145.381622,93.298172 156.444641,109.879379 
	C160.566986,116.057930 163.827850,122.811264 167.750763,129.780838 
	C167.839615,127.856300 167.984528,126.142136 167.987457,124.427734 
	C168.009949,111.268692 168.139130,98.107460 167.929245,84.951790 
	C167.863449,80.827682 169.565704,79.957001 173.256165,79.917282 
	C177.077820,79.876144 178.046814,81.420837 178.043320,84.963402 
	C177.974030,155.422699 178.165100,225.882843 177.861786,296.340912 
	C177.789398,313.154816 173.441986,329.211121 164.084641,343.492950 
	C159.177856,350.982025 152.838776,357.251801 145.157089,361.860748 
	C139.337723,365.352264 133.104813,368.154510 127.027969,371.631775 
	C103.979103,372.000000 80.958214,372.000000 57.468658,372.000000 
M45.683716,262.868652 
	C53.763279,267.825104 62.021385,272.530762 71.690079,273.304413 
	C79.127151,273.899475 86.619461,273.956848 94.087936,273.976166 
	C111.928413,274.022369 126.776222,266.637787 139.592255,254.826736 
	C160.127441,235.901825 165.467529,210.666504 167.823105,184.463623 
	C168.326859,178.859863 166.315674,173.077026 166.088516,167.351883 
	C165.361755,149.036118 159.333588,132.761063 149.378265,117.390938 
	C135.266510,95.603622 114.727440,86.478264 89.906891,85.136086 
	C84.926483,84.866760 79.859123,86.428268 74.817520,87.024506 
	C61.401325,88.611145 50.077930,94.637840 40.104763,103.430809 
	C32.314098,110.299530 25.850834,118.344643 21.948700,127.972031 
	C18.168539,137.298492 14.068640,146.778046 12.356233,156.582825 
	C10.534420,167.014008 11.470589,177.911377 10.984561,188.595291 
	C10.386621,201.739227 13.549750,214.076920 18.116755,226.257019 
	C23.636190,240.977249 32.421772,253.125626 45.683716,262.868652 
z"/>
<path fill="#5A471B" opacity="1.000000" stroke="none" 
	d="
M773.162476,295.000397 
	C770.285645,295.554504 767.404907,296.419678 764.535461,296.383667 
	C764.002136,296.376953 763.087830,292.747437 763.072876,290.784424 
	C762.952515,274.975281 763.005493,259.164825 763.005493,242.030014 
	C760.023132,247.968140 757.682251,252.759796 755.227112,257.492218 
	C748.322876,270.800537 738.092529,281.060852 725.606750,289.097870 
	C713.539734,296.865387 700.334045,300.486450 685.870972,301.271576 
	C672.737000,301.984528 660.106689,300.736877 648.054749,295.955475 
	C633.866882,290.326630 622.849976,280.323944 614.042175,267.987701 
	C605.171387,255.563293 599.270447,241.921844 595.608032,226.939941 
	C593.095642,216.662643 591.757507,206.519989 592.060852,196.115112 
	C592.440613,183.086334 592.412659,169.948303 594.199768,157.085144 
	C596.007385,144.073883 601.091675,131.924713 607.465942,120.212952 
	C613.903931,108.384132 622.115601,98.460625 632.915222,90.639061 
	C641.001282,84.782761 650.082153,81.300827 659.841858,78.902512 
	C669.659485,76.489990 679.533752,76.373749 689.263733,77.233757 
	C700.574341,78.233475 711.537476,81.266304 721.881897,86.656059 
	C734.766052,93.369164 744.874817,102.800079 752.342529,115.010201 
	C756.331543,121.532303 759.339966,128.654114 763.001587,135.923630 
	C763.001587,91.072624 763.001587,46.504971 763.000793,1.468657 
	C766.030579,1.000000 769.061218,1.000000 772.548706,1.468651 
	C773.007263,96.630836 773.007629,191.324371 773.017151,286.017914 
	C773.017456,289.012085 773.111938,292.006226 773.162476,295.000397 
M623.921265,263.612457 
	C625.222473,265.511322 626.345154,267.566833 627.852539,269.284790 
	C642.269104,285.715057 661.572266,290.600708 682.258118,291.862122 
	C685.222046,292.042877 688.307556,290.760498 691.291260,289.980957 
	C699.017090,287.962311 707.293762,287.012939 714.316650,283.543732 
	C733.068054,274.280853 744.861084,258.114288 753.093079,239.483078 
	C759.962952,223.934631 762.704468,207.199219 762.823730,190.291779 
	C762.906738,178.512970 761.534058,166.777542 759.313599,155.053238 
	C756.346680,139.388367 749.859741,125.507492 740.680725,112.954498 
	C726.610229,93.712051 705.982117,86.795090 683.241333,85.151024 
	C678.126953,84.781273 672.890198,86.662407 667.681519,86.907928 
	C659.504333,87.293381 652.370911,90.486084 645.300110,94.120407 
	C635.848572,98.978378 628.597290,106.297821 622.648682,114.874252 
	C614.131470,127.153999 607.860413,140.540298 605.043518,155.296661 
	C603.416199,163.821701 601.758728,172.436935 601.340149,181.070969 
	C600.883850,190.485199 601.198730,200.049835 602.381897,209.396408 
	C603.413696,217.546844 605.896301,225.548645 608.142700,233.501770 
	C611.210632,244.363770 616.101746,254.369415 623.921265,263.612457 
z"/>
<path fill="#800000" opacity="1.000000" stroke="none" 
	d="
M773.417053,294.670654 
	C773.111938,292.006226 773.017456,289.012085 773.017151,286.017914 
	C773.007629,191.324371 773.007263,96.630836 773.002808,1.468651 
	C773.000000,1.000000 773.500000,1.000000 773.750000,1.000000 
	C774.000000,96.291267 774.002502,191.582535 773.986267,286.873810 
	C773.985840,289.362885 773.781128,291.851868 773.417053,294.670654 
z"/>
<path fill="#59461B" opacity="1.000000" stroke="none" 
	d="
M1124.082520,123.199844 
	C1128.171753,105.989868 1138.602783,94.462990 1154.053711,87.530685 
	C1161.723511,84.089539 1169.724609,80.943069 1177.903076,79.191246 
	C1188.267090,76.971283 1198.955566,75.281601 1209.519287,75.193741 
	C1228.372314,75.036957 1247.292847,76.589722 1263.607544,87.519592 
	C1274.118896,94.561584 1281.741699,103.886688 1285.220703,116.776970 
	C1287.738892,126.107925 1287.987183,135.311111 1287.993896,144.696960 
	C1288.018555,179.183289 1287.999512,213.669662 1287.998657,248.156021 
	C1287.998657,249.988586 1287.948364,251.824158 1288.032837,253.653198 
	C1288.503174,263.831299 1293.830322,268.922546 1304.040039,268.997955 
	C1310.952515,269.049011 1310.967529,269.048981 1310.985596,276.208038 
	C1311.000732,282.205536 1311.140259,288.211426 1310.837402,294.194000 
	C1310.772217,295.480896 1309.044922,297.760284 1308.083984,297.759857 
	C1297.628296,297.755188 1287.173218,297.373230 1276.717163,297.123444 
	C1269.665649,296.954956 1266.202881,291.964966 1263.462158,286.641754 
	C1261.228149,282.303070 1259.949341,277.472565 1258.064941,272.366730 
	C1253.217163,275.940063 1248.374390,279.823883 1243.222046,283.240967 
	C1233.033813,289.998016 1222.172852,295.076721 1210.177856,298.220154 
	C1193.724365,302.531982 1177.088745,302.428772 1160.869629,299.615784 
	C1141.842773,296.315826 1126.274902,286.346893 1117.115234,268.238251 
	C1110.411621,254.985397 1107.972900,240.966599 1111.231323,226.623489 
	C1114.223145,213.453079 1120.242920,201.452240 1131.056274,192.601028 
	C1141.130005,184.355164 1152.303223,178.239349 1165.281250,175.939636 
	C1173.197754,174.536819 1181.125854,173.185883 1189.075073,171.985123 
	C1198.673218,170.535248 1208.362793,169.610031 1217.896362,167.833649 
	C1228.861938,165.790482 1239.687012,163.003189 1250.598511,160.657364 
	C1257.664185,159.138367 1255.335083,153.020187 1255.251221,149.300049 
	C1255.072021,141.349182 1253.312378,133.418228 1251.998535,125.512642 
	C1250.392700,115.850677 1243.740356,110.708427 1235.330322,106.976662 
	C1223.908569,101.908478 1211.865479,100.015495 1199.662476,101.205910 
	C1189.284912,102.218231 1178.535156,103.643135 1169.966675,110.517883 
	C1160.080200,118.450226 1153.771240,128.480392 1153.997437,141.754898 
	C1154.120117,148.957153 1154.034668,148.928772 1147.060059,148.928680 
	C1139.230469,148.928558 1131.400146,148.941925 1123.571411,149.045654 
	C1120.101562,149.091644 1118.466797,147.484863 1119.164551,144.141327 
	C1120.603271,137.247650 1122.277100,130.403061 1124.082520,123.199844 
M1208.445557,269.091736 
	C1214.519287,266.760284 1220.841187,264.916840 1226.608765,261.983398 
	C1235.327271,257.549011 1242.214844,250.743912 1247.196899,242.334534 
	C1257.440796,225.043289 1254.904907,205.980423 1254.810791,187.105896 
	C1247.788696,188.457703 1241.274170,189.922760 1234.688965,190.920715 
	C1227.989990,191.935867 1221.145874,192.092697 1214.502808,193.351364 
	C1206.730347,194.824020 1199.057129,196.904770 1191.430054,199.040298 
	C1180.516113,202.096024 1169.502930,204.951080 1158.887939,208.858566 
	C1153.176147,210.961212 1147.889282,214.774979 1145.915161,221.349701 
	C1144.611572,225.691956 1142.713867,229.992615 1142.278076,234.429352 
	C1141.449829,242.858200 1143.040283,250.854828 1148.989868,257.528198 
	C1155.639038,264.986176 1163.023438,269.161407 1173.690430,270.649689 
	C1185.442871,272.289398 1196.327515,269.693024 1208.445557,269.091736 
z"/>
<path fill="#59461B" opacity="1.000000" stroke="none" 
	d="
M979.644775,297.356934 
	C964.476196,293.265442 951.832397,285.699310 941.017639,274.908508 
	C929.428406,263.345032 921.638611,249.397400 917.268982,233.905548 
	C914.345032,223.539398 912.784180,212.582520 912.232483,201.807068 
	C911.580017,189.063263 911.507080,176.059525 913.352295,163.486847 
	C914.994995,152.293686 919.134521,141.367966 923.004944,130.624298 
	C928.606384,115.075745 939.517273,103.303902 952.324524,93.357742 
	C961.203064,86.462570 970.981812,80.951920 982.298889,79.029747 
	C991.195923,77.518608 1000.146484,75.179482 1009.070862,75.190552 
	C1034.321045,75.221878 1057.000122,82.532349 1075.246948,101.142281 
	C1086.569092,112.689804 1094.455200,125.908775 1099.283813,141.422104 
	C1105.066650,160.001083 1106.817017,178.808777 1105.703491,198.841156 
	C1051.561523,198.841156 997.531799,198.841156 942.550598,198.841156 
	C943.867126,207.511078 944.591003,215.397552 946.377686,223.035431 
	C947.752869,228.914200 950.280151,234.557220 952.620117,240.169540 
	C957.564392,252.028229 965.604553,260.693817 977.446106,266.472931 
	C989.139709,272.179810 1001.123352,274.207825 1013.912537,274.100616 
	C1025.414917,274.004150 1034.994507,269.118073 1044.428589,263.498810 
	C1057.746826,255.565979 1064.909546,243.066483 1070.166504,229.054977 
	C1070.677979,227.691650 1073.036133,226.219238 1074.576416,226.175278 
	C1083.901611,225.909225 1093.238281,226.077560 1102.570679,226.025330 
	C1105.650635,226.008102 1106.654785,227.882248 1105.719482,230.213943 
	C1102.376221,238.549225 1099.225830,247.032532 1094.994873,254.919296 
	C1091.443359,261.539398 1086.756104,267.616821 1082.095947,273.561615 
	C1072.605957,285.667664 1059.687988,292.459412 1045.230103,297.048981 
	C1026.519897,302.988342 1007.540894,301.258667 988.547913,299.863861 
	C985.666199,299.652283 982.866516,298.322815 979.644775,297.356934 
M969.006775,117.488373 
	C964.722412,122.279236 959.932312,126.714798 956.262939,131.937714 
	C949.414307,141.685944 946.275635,152.930298 944.549744,164.663559 
	C943.543945,171.501389 943.613708,171.983124 950.291321,171.985428 
	C989.769897,171.999039 1029.248535,171.996368 1068.727051,171.978638 
	C1070.336426,171.977921 1071.945679,171.771347 1073.499878,171.664474 
	C1074.530640,150.691284 1065.213989,121.599960 1037.165894,108.465073 
	C1018.299194,99.629875 990.521179,100.156631 969.006775,117.488373 
z"/>
<path fill="#59461B" opacity="1.000000" stroke="none" 
	d="
M841.106262,119.192375 
	C843.754456,115.126984 846.568542,111.158745 849.017944,106.976913 
	C855.025635,96.720253 865.113342,91.131866 874.196777,84.304924 
	C883.735046,77.136093 895.105652,75.542656 906.192322,73.572639 
	C910.324585,72.838356 915.078613,75.309746 919.466125,76.601196 
	C920.177856,76.810699 920.860413,78.488960 920.871399,79.495796 
	C920.976440,89.135094 920.934265,98.775978 920.934265,108.673576 
	C904.582581,106.109299 890.315247,111.135742 876.325073,118.144424 
	C864.256897,124.190239 855.330200,133.456009 849.734070,145.240417 
	C846.355103,152.355927 844.402100,160.790802 844.238586,168.683212 
	C843.393372,209.466034 843.273621,250.264847 843.083679,291.058929 
	C843.062988,295.493469 841.950500,297.343384 837.227661,297.082306 
	C830.747986,296.724091 824.225098,296.788269 817.737366,297.063782 
	C813.444580,297.246094 811.845154,295.865387 811.923096,291.400482 
	C812.158630,277.905823 812.003357,264.404358 812.003235,250.905533 
	C812.002930,196.410309 812.001282,141.915100 812.006958,87.419876 
	C812.007751,80.027000 812.026245,79.976181 819.419067,80.021057 
	C826.409485,80.063484 833.399231,80.228111 840.728760,81.050552 
	C841.080933,94.238876 841.093628,106.715622 841.106262,119.192375 
z"/>
<path fill="#59471B" opacity="1.000000" stroke="none" 
	d="
M325.478333,81.264282 
	C335.293762,86.520813 344.297516,92.164162 351.742554,100.150635 
	C362.003815,111.158127 369.742371,123.532051 375.450897,137.516571 
	C383.617645,157.523254 384.605469,178.327621 383.873993,199.377655 
	C383.355774,214.289749 380.153900,228.779236 374.206024,242.511353 
	C365.906128,261.673737 354.147278,278.203308 336.114044,289.421448 
	C324.793121,296.463989 312.476532,300.996887 298.933838,300.959564 
	C289.731415,300.934174 280.364075,301.387146 271.362396,299.881256 
	C250.819794,296.444580 234.521713,285.565857 221.591858,269.217743 
	C213.016403,258.375214 206.778809,246.321854 202.329987,233.440414 
	C199.675140,225.753372 198.151871,217.537628 197.212097,209.432907 
	C196.163116,200.386124 195.894119,191.186005 196.091370,182.070038 
	C196.578217,159.569260 201.851349,138.229767 213.689682,118.898804 
	C223.738785,102.489502 236.963882,89.052971 254.879349,81.554619 
	C269.056396,75.620949 284.214203,73.377831 299.621582,75.817703 
	C308.185608,77.173882 316.623871,79.324265 325.478333,81.264282 
M336.273071,276.874420 
	C338.438599,275.082672 340.739532,273.429993 342.746429,271.475403 
	C351.937897,262.523468 358.207520,251.773895 363.661377,240.150467 
	C370.300476,226.001099 372.600739,211.069000 373.759674,195.952377 
	C374.430725,187.200104 372.455231,178.273041 372.088013,169.407349 
	C371.274200,149.761017 363.612213,132.564453 352.688843,116.838295 
	C338.144226,95.898636 316.961395,86.604179 292.092224,85.134514 
	C287.314026,84.852127 282.447144,86.719673 277.595673,86.896614 
	C266.659546,87.295479 256.951904,91.436569 248.165451,97.217003 
	C234.704376,106.072739 225.319046,118.763428 217.964920,132.966934 
	C210.586868,147.216614 207.858521,162.884872 206.393188,178.451340 
	C205.330276,189.742996 207.326752,201.380692 208.497803,212.808868 
	C209.763870,225.164307 214.544098,236.459442 219.964233,247.547226 
	C225.679718,259.239197 234.060059,268.706696 243.927017,276.852295 
	C256.952057,287.605072 273.141754,289.790710 289.071411,291.734467 
	C294.862305,292.441101 301.009308,290.363251 306.975983,289.440247 
	C310.073608,288.961121 313.401825,288.800354 316.154846,287.499146 
	C322.787537,284.364349 329.142761,280.642548 336.273071,276.874420 
z"/>
<path fill="#59461B" opacity="1.000000" stroke="none" 
	d="
M551.728394,278.734192 
	C540.804016,288.934113 528.350647,296.164032 514.283447,299.382935 
	C505.260315,301.447632 495.602692,300.834625 486.220703,301.188202 
	C482.588074,301.325134 478.879944,301.132568 475.293884,300.550201 
	C457.359131,297.637817 441.842957,289.463257 429.413910,276.521545 
	C422.563538,269.388550 417.142975,260.678650 412.068542,252.094086 
	C405.347870,240.724365 401.078247,228.053421 399.802002,215.020065 
	C398.386749,200.567322 398.484619,185.895615 398.974274,171.354614 
	C399.252106,163.103592 400.940308,154.720490 403.263458,146.767914 
	C405.631958,138.660324 408.659271,130.460373 413.026794,123.293381 
	C418.534943,114.254570 425.025208,105.585159 432.319702,97.925842 
	C440.246063,89.603050 450.130310,83.665337 461.265747,79.871529 
	C472.190887,76.149361 483.342865,74.889183 494.747925,75.012619 
	C509.010223,75.166969 522.834656,78.251701 535.039307,85.309196 
	C549.081421,93.429314 559.905640,105.381180 568.169556,119.467384 
	C574.698975,130.596985 579.305603,142.365372 582.237000,155.039246 
	C586.634155,174.049561 586.459961,193.037720 584.110718,212.136002 
	C582.185791,227.784653 577.247375,242.587372 568.862732,255.928925 
	C563.881042,263.855652 557.653442,270.999390 551.728394,278.734192 
M455.694244,282.812561 
	C468.013763,290.150879 481.916321,290.609253 495.607849,291.804260 
	C497.555939,291.974274 499.652771,290.073853 501.647430,290.139801 
	C510.348785,290.427460 518.298828,287.742310 525.863342,284.034241 
	C530.831848,281.598694 535.675781,278.595490 539.923218,275.062378 
	C551.756348,265.219421 559.756531,252.742233 566.011108,238.583069 
	C572.552551,223.774597 573.959045,208.190811 575.775574,192.636017 
	C576.497681,186.453171 574.390259,179.990250 574.113159,173.631210 
	C573.159668,151.753983 565.682922,132.463379 552.680481,114.884323 
	C538.392700,95.567535 518.533447,87.451927 495.683624,85.177261 
	C490.480835,84.659332 485.078705,86.542915 479.740021,86.915359 
	C463.673187,88.036255 450.327026,95.169861 439.035217,106.022095 
	C419.699188,124.605377 411.148376,148.516769 408.278381,174.406097 
	C406.812561,187.628525 407.649323,201.095062 410.195190,214.389114 
	C413.116943,229.645767 418.433411,243.824127 426.958374,256.774872 
	C434.140900,267.686279 443.164459,276.638824 455.694244,282.812561 
z"/>
<path fill="#59471B" opacity="1.000000" stroke="none" 
	d="
M841.375854,118.818329 
	C841.093628,106.715622 841.080933,94.238876 841.082397,81.280899 
	C841.396057,83.205460 841.952820,85.611511 841.950256,88.016968 
	C841.939575,98.159500 841.762024,108.301865 841.375854,118.818329 
z"/>
<path fill="#000000" opacity="1.000000" stroke="none" 
	d="
M1347.940796,151.862381 
	C1351.738037,137.137543 1358.635376,125.498833 1372.080933,117.626442 
	C1381.872681,111.893433 1391.782349,106.904640 1402.642212,103.975227 
	C1413.856079,100.950287 1424.813354,103.228508 1434.909180,108.188400 
	C1442.837402,112.083458 1450.228027,117.156677 1457.580444,122.117310 
	C1465.540283,127.487785 1470.204590,135.626419 1472.981201,144.452805 
	C1475.731079,153.193802 1477.794800,162.278854 1478.930054,171.366592 
	C1480.296631,182.305939 1481.691650,193.529770 1480.686890,204.409943 
	C1479.171265,220.820679 1476.962036,237.536087 1465.884521,251.048447 
	C1463.202759,254.319778 1459.778442,257.103271 1456.324707,259.597626 
	C1447.280273,266.129669 1437.305298,270.779633 1426.576416,273.984894 
	C1418.743042,276.325073 1410.993042,278.359497 1402.854858,276.004547 
	C1385.160278,270.884247 1368.796631,263.413116 1357.632812,247.930435 
	C1348.687134,235.524246 1344.809570,221.195053 1344.102417,206.119171 
	C1343.588135,195.154129 1343.538818,184.118668 1344.171387,173.165939 
	C1344.576416,166.152161 1346.599121,159.231812 1347.940796,151.862381 
z"/>
<path fill="#000000" opacity="1.000000" stroke="none" 
	d="
M45.381493,262.664673 
	C32.421772,253.125626 23.636190,240.977249 18.116755,226.257019 
	C13.549750,214.076920 10.386621,201.739227 10.984561,188.595291 
	C11.470589,177.911377 10.534420,167.014008 12.356233,156.582825 
	C14.068640,146.778046 18.168539,137.298492 21.948700,127.972031 
	C25.850834,118.344643 32.314098,110.299530 40.104763,103.430809 
	C50.077930,94.637840 61.401325,88.611145 74.817520,87.024506 
	C79.859123,86.428268 84.926483,84.866760 89.906891,85.136086 
	C114.727440,86.478264 135.266510,95.603622 149.378265,117.390938 
	C159.333588,132.761063 165.361755,149.036118 166.088516,167.351883 
	C166.315674,173.077026 168.326859,178.859863 167.823105,184.463623 
	C165.467529,210.666504 160.127441,235.901825 139.592255,254.826736 
	C126.776222,266.637787 111.928413,274.022369 94.087936,273.976166 
	C86.619461,273.956848 79.127151,273.899475 71.690079,273.304413 
	C62.021385,272.530762 53.763279,267.825104 45.381493,262.664673 
z"/>
<path fill="#000000" opacity="1.000000" stroke="none" 
	d="
M623.681396,263.338013 
	C616.101746,254.369415 611.210632,244.363770 608.142700,233.501770 
	C605.896301,225.548645 603.413696,217.546844 602.381897,209.396408 
	C601.198730,200.049835 600.883850,190.485199 601.340149,181.070969 
	C601.758728,172.436935 603.416199,163.821701 605.043518,155.296661 
	C607.860413,140.540298 614.131470,127.153999 622.648682,114.874252 
	C628.597290,106.297821 635.848572,98.978378 645.300110,94.120407 
	C652.370911,90.486084 659.504333,87.293381 667.681519,86.907928 
	C672.890198,86.662407 678.126953,84.781273 683.241333,85.151024 
	C705.982117,86.795090 726.610229,93.712051 740.680725,112.954498 
	C749.859741,125.507492 756.346680,139.388367 759.313599,155.053238 
	C761.534058,166.777542 762.906738,178.512970 762.823730,190.291779 
	C762.704468,207.199219 759.962952,223.934631 753.093079,239.483078 
	C744.861084,258.114288 733.068054,274.280853 714.316650,283.543732 
	C707.293762,287.012939 699.017090,287.962311 691.291260,289.980957 
	C688.307556,290.760498 685.222046,292.042877 682.258118,291.862122 
	C661.572266,290.600708 642.269104,285.715057 627.852539,269.284790 
	C626.345154,267.566833 625.222473,265.511322 623.681396,263.338013 
z"/>
<path fill="#000000" opacity="1.000000" stroke="none" 
	d="
M1208.021484,269.168762 
	C1196.327515,269.693024 1185.442871,272.289398 1173.690430,270.649689 
	C1163.023438,269.161407 1155.639038,264.986176 1148.989868,257.528198 
	C1143.040283,250.854828 1141.449829,242.858200 1142.278076,234.429352 
	C1142.713867,229.992615 1144.611572,225.691956 1145.915161,221.349701 
	C1147.889282,214.774979 1153.176147,210.961212 1158.887939,208.858566 
	C1169.502930,204.951080 1180.516113,202.096024 1191.430054,199.040298 
	C1199.057129,196.904770 1206.730347,194.824020 1214.502808,193.351364 
	C1221.145874,192.092697 1227.989990,191.935867 1234.688965,190.920715 
	C1241.274170,189.922760 1247.788696,188.457703 1254.810791,187.105896 
	C1254.904907,205.980423 1257.440796,225.043289 1247.196899,242.334534 
	C1242.214844,250.743912 1235.327271,257.549011 1226.608765,261.983398 
	C1220.841187,264.916840 1214.519287,266.760284 1208.021484,269.168762 
z"/>
<path fill="#000000" opacity="1.000000" stroke="none" 
	d="
M969.267090,117.234879 
	C990.521179,100.156631 1018.299194,99.629875 1037.165894,108.465073 
	C1065.213989,121.599960 1074.530640,150.691284 1073.499878,171.664474 
	C1071.945679,171.771347 1070.336426,171.977921 1068.727051,171.978638 
	C1029.248535,171.996368 989.769897,171.999039 950.291321,171.985428 
	C943.613708,171.983124 943.543945,171.501389 944.549744,164.663559 
	C946.275635,152.930298 949.414307,141.685944 956.262939,131.937714 
	C959.932312,126.714798 964.722412,122.279236 969.267090,117.234879 
z"/>
<path fill="#000000" opacity="1.000000" stroke="none" 
	d="
M335.941498,277.015961 
	C329.142761,280.642548 322.787537,284.364349 316.154846,287.499146 
	C313.401825,288.800354 310.073608,288.961121 306.975983,289.440247 
	C301.009308,290.363251 294.862305,292.441101 289.071411,291.734467 
	C273.141754,289.790710 256.952057,287.605072 243.927017,276.852295 
	C234.060059,268.706696 225.679718,259.239197 219.964233,247.547226 
	C214.544098,236.459442 209.763870,225.164307 208.497803,212.808868 
	C207.326752,201.380692 205.330276,189.742996 206.393188,178.451340 
	C207.858521,162.884872 210.586868,147.216614 217.964920,132.966934 
	C225.319046,118.763428 234.704376,106.072739 248.165451,97.217003 
	C256.951904,91.436569 266.659546,87.295479 277.595673,86.896614 
	C282.447144,86.719673 287.314026,84.852127 292.092224,85.134514 
	C316.961395,86.604179 338.144226,95.898636 352.688843,116.838295 
	C363.612213,132.564453 371.274200,149.761017 372.088013,169.407349 
	C372.455231,178.273041 374.430725,187.200104 373.759674,195.952377 
	C372.600739,211.069000 370.300476,226.001099 363.661377,240.150467 
	C358.207520,251.773895 351.937897,262.523468 342.746429,271.475403 
	C340.739532,273.429993 338.438599,275.082672 335.941498,277.015961 
z"/>
<path fill="#000000" opacity="1.000000" stroke="none" 
	d="
M455.396423,282.584167 
	C443.164459,276.638824 434.140900,267.686279 426.958374,256.774872 
	C418.433411,243.824127 413.116943,229.645767 410.195190,214.389114 
	C407.649323,201.095062 406.812561,187.628525 408.278381,174.406097 
	C411.148376,148.516769 419.699188,124.605377 439.035217,106.022095 
	C450.327026,95.169861 463.673187,88.036255 479.740021,86.915359 
	C485.078705,86.542915 490.480835,84.659332 495.683624,85.177261 
	C518.533447,87.451927 538.392700,95.567535 552.680481,114.884323 
	C565.682922,132.463379 573.159668,151.753983 574.113159,173.631210 
	C574.390259,179.990250 576.497681,186.453171 575.775574,192.636017 
	C573.959045,208.190811 572.552551,223.774597 566.011108,238.583069 
	C559.756531,252.742233 551.756348,265.219421 539.923218,275.062378 
	C535.675781,278.595490 530.831848,281.598694 525.863342,284.034241 
	C518.298828,287.742310 510.348785,290.427460 501.647430,290.139801 
	C499.652771,290.073853 497.555939,291.974274 495.607849,291.804260 
	C481.916321,290.609253 468.013763,290.150879 455.396423,282.584167 
z"/>
</svg>